<svg xmlns="http://www.w3.org/2000/svg" width="900" height="1200" viewBox="0 0 900 1200">
<!-- HQ Tools: 03-tres-pontos.svg | Três pontos: laranja = VP esquerdo; cinza = VP direito; azul = verticais (3º VP) | gerado por scripts/gerar-perspectivas.py -->
<path d="M 0.0 272.7 L 450.0 0.0" fill="none" stroke="#e8843c" stroke-width="1.2"/>
<path d="M 0.0 327.3 L 648.0 0.0" fill="none" stroke="#e8843c" stroke-width="1.2"/>
<path d="M 0.0 381.8 L 900.0 18.2" fill="none" stroke="#e8843c" stroke-width="1.2"/>
<path d="M 0.0 436.4 L 900.0 163.6" fill="none" stroke="#e8843c" stroke-width="1.2"/>
<path d="M 0.0 490.9 L 900.0 309.1" fill="none" stroke="#e8843c" stroke-width="1.2"/>
<path d="M 0.0 545.5 L 900.0 454.5" fill="none" stroke="#e8843c" stroke-width="1.2"/>
<path d="M 0.0 654.5 L 900.0 745.5" fill="none" stroke="#e8843c" stroke-width="1.2"/>
<path d="M 0.0 709.1 L 900.0 890.9" fill="none" stroke="#e8843c" stroke-width="1.2"/>
<path d="M 0.0 763.6 L 900.0 1036.4" fill="none" stroke="#e8843c" stroke-width="1.2"/>
<path d="M 0.0 818.2 L 900.0 1181.8" fill="none" stroke="#e8843c" stroke-width="1.2"/>
<path d="M 0.0 872.7 L 648.0 1200.0" fill="none" stroke="#e8843c" stroke-width="1.2"/>
<path d="M 0.0 927.3 L 450.0 1200.0" fill="none" stroke="#e8843c" stroke-width="1.2"/>
<path d="M 900.0 272.7 L 450.0 0.0" fill="none" stroke="#b0b4ba" stroke-width="1.2"/>
<path d="M 900.0 327.3 L 252.0 0.0" fill="none" stroke="#b0b4ba" stroke-width="1.2"/>
<path d="M 0.0 18.2 L 900.0 381.8" fill="none" stroke="#b0b4ba" stroke-width="1.2"/>
<path d="M 0.0 163.6 L 900.0 436.4" fill="none" stroke="#b0b4ba" stroke-width="1.2"/>
<path d="M 0.0 309.1 L 900.0 490.9" fill="none" stroke="#b0b4ba" stroke-width="1.2"/>
<path d="M 0.0 454.5 L 900.0 545.5" fill="none" stroke="#b0b4ba" stroke-width="1.2"/>
<path d="M 0.0 745.5 L 900.0 654.5" fill="none" stroke="#b0b4ba" stroke-width="1.2"/>
<path d="M 0.0 890.9 L 900.0 709.1" fill="none" stroke="#b0b4ba" stroke-width="1.2"/>
<path d="M 0.0 1036.4 L 900.0 763.6" fill="none" stroke="#b0b4ba" stroke-width="1.2"/>
<path d="M 0.0 1181.8 L 900.0 818.2" fill="none" stroke="#b0b4ba" stroke-width="1.2"/>
<path d="M 900.0 872.7 L 252.0 1200.0" fill="none" stroke="#b0b4ba" stroke-width="1.2"/>
<path d="M 900.0 927.3 L 450.0 1200.0" fill="none" stroke="#b0b4ba" stroke-width="1.2"/>
<path d="M 0.0 600.0 L 140.6 1200.0" fill="none" stroke="#2f6fd0" stroke-width="1.2"/>
<path d="M 0.0 216.0 L 192.2 1200.0" fill="none" stroke="#2f6fd0" stroke-width="1.2"/>
<path d="M 56.2 0.0 L 243.8 1200.0" fill="none" stroke="#2f6fd0" stroke-width="1.2"/>
<path d="M 154.7 0.0 L 295.3 1200.0" fill="none" stroke="#2f6fd0" stroke-width="1.2"/>
<path d="M 253.1 0.0 L 346.9 1200.0" fill="none" stroke="#2f6fd0" stroke-width="1.2"/>
<path d="M 351.6 0.0 L 398.4 1200.0" fill="none" stroke="#2f6fd0" stroke-width="1.2"/>
<path d="M 450.0 0.0 L 450.0 1200.0" fill="none" stroke="#2f6fd0" stroke-width="1.2"/>
<path d="M 548.4 0.0 L 501.6 1200.0" fill="none" stroke="#2f6fd0" stroke-width="1.2"/>
<path d="M 646.9 0.0 L 553.1 1200.0" fill="none" stroke="#2f6fd0" stroke-width="1.2"/>
<path d="M 745.3 0.0 L 604.7 1200.0" fill="none" stroke="#2f6fd0" stroke-width="1.2"/>
<path d="M 843.8 0.0 L 656.2 1200.0" fill="none" stroke="#2f6fd0" stroke-width="1.2"/>
<path d="M 900.0 216.0 L 707.8 1200.0" fill="none" stroke="#2f6fd0" stroke-width="1.2"/>
<path d="M 900.0 600.0 L 759.4 1200.0" fill="none" stroke="#2f6fd0" stroke-width="1.2"/>
<path d="M 0.0 600.0 L 900.0 600.0" fill="none" stroke="#b0b4ba" stroke-width="2.0"/>
</svg>
