<svg xmlns="http://www.w3.org/2000/svg" width="900" height="1200" viewBox="0 0 900 1200">
<!-- HQ Tools: 05-passaro-nivel-2.svg | Vista de pássaro forte: horizonte a 15% da altura, 3º VP abaixo | gerado por scripts/gerar-perspectivas.py -->
<path d="M 0.0 81.8 L 450.0 0.0" fill="none" stroke="#e8843c" stroke-width="1.2"/>
<path d="M 0.0 136.4 L 900.0 63.6" fill="none" stroke="#e8843c" stroke-width="1.2"/>
<path d="M 0.0 190.9 L 900.0 209.1" fill="none" stroke="#e8843c" stroke-width="1.2"/>
<path d="M 0.0 245.5 L 900.0 354.5" fill="none" stroke="#e8843c" stroke-width="1.2"/>
<path d="M 0.0 300.0 L 900.0 500.0" fill="none" stroke="#e8843c" stroke-width="1.2"/>
<path d="M 0.0 354.5 L 900.0 645.5" fill="none" stroke="#e8843c" stroke-width="1.2"/>
<path d="M 0.0 409.1 L 900.0 790.9" fill="none" stroke="#e8843c" stroke-width="1.2"/>
<path d="M 0.0 463.6 L 900.0 936.4" fill="none" stroke="#e8843c" stroke-width="1.2"/>
<path d="M 0.0 518.2 L 900.0 1081.8" fill="none" stroke="#e8843c" stroke-width="1.2"/>
<path d="M 0.0 572.7 L 862.5 1200.0" fill="none" stroke="#e8843c" stroke-width="1.2"/>
<path d="M 0.0 627.3 L 691.5 1200.0" fill="none" stroke="#e8843c" stroke-width="1.2"/>
<path d="M 0.0 681.8 L 557.6 1200.0" fill="none" stroke="#e8843c" stroke-width="1.2"/>
<path d="M 0.0 736.4 L 450.0 1200.0" fill="none" stroke="#e8843c" stroke-width="1.2"/>
<path d="M 900.0 81.8 L 450.0 0.0" fill="none" stroke="#b0b4ba" stroke-width="1.2"/>
<path d="M 0.0 63.6 L 900.0 136.4" fill="none" stroke="#b0b4ba" stroke-width="1.2"/>
<path d="M 0.0 209.1 L 900.0 190.9" fill="none" stroke="#b0b4ba" stroke-width="1.2"/>
<path d="M 0.0 354.5 L 900.0 245.5" fill="none" stroke="#b0b4ba" stroke-width="1.2"/>
<path d="M 0.0 500.0 L 900.0 300.0" fill="none" stroke="#b0b4ba" stroke-width="1.2"/>
<path d="M 0.0 645.5 L 900.0 354.5" fill="none" stroke="#b0b4ba" stroke-width="1.2"/>
<path d="M 0.0 790.9 L 900.0 409.1" fill="none" stroke="#b0b4ba" stroke-width="1.2"/>
<path d="M 0.0 936.4 L 900.0 463.6" fill="none" stroke="#b0b4ba" stroke-width="1.2"/>
<path d="M 0.0 1081.8 L 900.0 518.2" fill="none" stroke="#b0b4ba" stroke-width="1.2"/>
<path d="M 900.0 572.7 L 37.5 1200.0" fill="none" stroke="#b0b4ba" stroke-width="1.2"/>
<path d="M 900.0 627.3 L 208.5 1200.0" fill="none" stroke="#b0b4ba" stroke-width="1.2"/>
<path d="M 900.0 681.8 L 342.4 1200.0" fill="none" stroke="#b0b4ba" stroke-width="1.2"/>
<path d="M 900.0 736.4 L 450.0 1200.0" fill="none" stroke="#b0b4ba" stroke-width="1.2"/>
<path d="M 0.0 180.0 L 425.0 1200.0" fill="none" stroke="#2f6fd0" stroke-width="1.2"/>
<path d="M 12.5 0.0 L 429.2 1200.0" fill="none" stroke="#2f6fd0" stroke-width="1.2"/>
<path d="M 100.0 0.0 L 433.3 1200.0" fill="none" stroke="#2f6fd0" stroke-width="1.2"/>
<path d="M 187.5 0.0 L 437.5 1200.0" fill="none" stroke="#2f6fd0" stroke-width="1.2"/>
<path d="M 275.0 0.0 L 441.7 1200.0" fill="none" stroke="#2f6fd0" stroke-width="1.2"/>
<path d="M 362.5 0.0 L 445.8 1200.0" fill="none" stroke="#2f6fd0" stroke-width="1.2"/>
<path d="M 450.0 0.0 L 450.0 1200.0" fill="none" stroke="#2f6fd0" stroke-width="1.2"/>
<path d="M 537.5 0.0 L 454.2 1200.0" fill="none" stroke="#2f6fd0" stroke-width="1.2"/>
<path d="M 625.0 0.0 L 458.3 1200.0" fill="none" stroke="#2f6fd0" stroke-width="1.2"/>
<path d="M 712.5 0.0 L 462.5 1200.0" fill="none" stroke="#2f6fd0" stroke-width="1.2"/>
<path d="M 800.0 0.0 L 466.7 1200.0" fill="none" stroke="#2f6fd0" stroke-width="1.2"/>
<path d="M 887.5 0.0 L 470.8 1200.0" fill="none" stroke="#2f6fd0" stroke-width="1.2"/>
<path d="M 900.0 180.0 L 475.0 1200.0" fill="none" stroke="#2f6fd0" stroke-width="1.2"/>
<path d="M 0.0 180.0 L 900.0 180.0" fill="none" stroke="#b0b4ba" stroke-width="2.0"/>
</svg>
