<?xml version="1.0" encoding="UTF-8" standalone="no"?>
<!-- Created with Inkscape (http://www.inkscape.org/) -->

<svg
   width="300"
   height="300"
   viewBox="0 0 79.374998 79.375"
   version="1.1"
   id="svg1"
   inkscape:version="1.4.4 (dcaf3e7d9e, 2026-05-05)"
   sodipodi:docname="Fala_Speak_06_.svg"
   xml:space="preserve"
   xmlns:inkscape="http://www.inkscape.org/namespaces/inkscape"
   xmlns:sodipodi="http://sodipodi.sourceforge.net/DTD/sodipodi-0.dtd"
   xmlns="http://www.w3.org/2000/svg"
   xmlns:svg="http://www.w3.org/2000/svg"><sodipodi:namedview
     id="namedview1"
     pagecolor="#ffffff"
     bordercolor="#000000"
     borderopacity="0.25"
     inkscape:showpageshadow="2"
     inkscape:pageopacity="0.0"
     inkscape:pagecheckerboard="0"
     inkscape:deskcolor="#d1d1d1"
     inkscape:document-units="px"
     inkscape:zoom="1.5576923"
     inkscape:cx="169.16049"
     inkscape:cy="121.65432"
     inkscape:window-width="1920"
     inkscape:window-height="1011"
     inkscape:window-x="0"
     inkscape:window-y="32"
     inkscape:window-maximized="1"
     inkscape:current-layer="layer1"
     showgrid="false" /><defs
     id="defs1"><inkscape:path-effect
       effect="powerstroke"
       message=""
       id="path-effect6"
       is_visible="true"
       lpeversion="1.3"
       scale_width="2.5906736"
       interpolator_type="CentripetalCatmullRom"
       interpolator_beta="0.2"
       start_linecap_type="zerowidth"
       end_linecap_type="zerowidth"
       offset_points="11.5,0.29499999"
       linejoin_type="round"
       miter_limit="4"
       not_jump="false"
       sort_points="true" /><inkscape:path-effect
       effect="taper_stroke"
       start_shape="center | center"
       end_shape="center | center"
       id="path-effect4"
       is_visible="true"
       lpeversion="1"
       stroke_width="0.59"
       subpath="1"
       attach_start="0.2"
       end_offset="0.2"
       start_smoothing="0.5"
       end_smoothing="0.5"
       jointype="extrapolated"
       miter_limit="100" /><inkscape:path-effect
       effect="roughen"
       id="path-effect3"
       is_visible="true"
       lpeversion="1.2"
       global_randomize="1;1"
       displace_x="0.2;1"
       displace_y="0.2;1"
       method="size"
       max_segment_size="1.39961"
       segments="2"
       handles="along"
       shift_nodes="true"
       fixed_displacement="false"
       spray_tool_friendly="false" /><inkscape:path-effect
       effect="roughen"
       id="path-effect2"
       is_visible="true"
       lpeversion="1.2"
       global_randomize="1;1"
       displace_x="0.2;1"
       displace_y="0.2;1"
       method="size"
       max_segment_size="1.0599"
       segments="2"
       handles="along"
       shift_nodes="true"
       fixed_displacement="false"
       spray_tool_friendly="false" /><inkscape:path-effect
       effect="roughen"
       id="path-effect1"
       is_visible="true"
       lpeversion="1.2"
       global_randomize="1;1"
       displace_x="0.2;1"
       displace_y="0.2;1"
       method="size"
       max_segment_size="1.04846"
       segments="2"
       handles="rand"
       shift_nodes="true"
       fixed_displacement="false"
       spray_tool_friendly="false" /><inkscape:path-effect
       effect="fill_between_many"
       method="bsplinespiro"
       autoreverse="false"
       close="false"
       join="false"
       linkedpaths="#path2,0,1"
       id="path-effect5" /><inkscape:path-effect
       effect="fill_between_many"
       method="bsplinespiro"
       autoreverse="false"
       close="false"
       join="false"
       linkedpaths="#path2,0,1"
       id="path-effect7" /></defs><g
     inkscape:label="Camada 1"
     inkscape:groupmode="layer"
     id="layer1"><path
       id="path2"
       d="m 38.265527,8.4154301 c -5.358801,0.3696771 -10.72549,1.7127989 -15.526071,4.4955319 -1.963093,1.122614 -3.832218,2.504071 -5.375426,4.292571 -3.415212,3.836914 -5.614669,8.932259 -6.545248,14.251268 -0.9595346,5.400478 -0.526288,11.126092 1.336451,16.223653 1.008474,2.819321 2.343984,5.493529 3.980048,7.906489 1.479435,2.090787 3.176575,4.00123 5.109361,5.552514 0.943547,0.728079 1.920407,1.399526 2.860979,2.132472 0.644877,0.402144 1.367602,0.602566 2.032769,0.955962 0.811024,0.387622 1.626979,0.776392 2.415668,1.213887 0.312946,0.26278 0.736348,0.140359 1.079794,0.321149 1.850135,0.569129 3.710941,1.250835 5.64819,1.246904 0.499118,0.02579 0.983419,0.182084 1.440258,0.401678 1.611538,0.528923 3.310442,0.395687 4.957683,0.661006 1.840686,0.06095 3.684334,-0.06235 5.513836,-0.28571 3.038138,-0.472376 6.035356,-1.369336 8.82879,-2.81601 2.507057,-1.253006 4.928209,-2.728895 7.237903,-4.397816 1.666522,-1.354568 2.944459,-3.214217 4.107454,-5.103365 1.077992,-2.111348 1.794387,-4.424215 2.768613,-6.594201 2.258136,-6.318662 2.053734,-13.641716 -0.33584,-19.873098 -1.344633,-3.588732 -3.137956,-7.039945 -5.689135,-9.700402 -2.883749,-3.043045 -6.375887,-5.209876 -9.913221,-7.11327 -4.046214,-2.14529 -8.433693,-3.5308627 -12.905988,-3.7830324 -1.008299,-0.062914 -2.019201,-0.067423 -3.026868,0.011819 z"
       style="fill:#ffffff;fill-rule:nonzero;stroke:#000000;stroke-width:0.99999999;stroke-linejoin:bevel;stroke-miterlimit:1;stroke-dasharray:none"
       inkscape:linked-fill="path7" /></g></svg>
