<?xml version="1.0" encoding="UTF-8" standalone="no"?>
<!-- Created with Inkscape (http://www.inkscape.org/) -->

<svg
   width="300"
   height="300"
   viewBox="0 0 79.374998 79.375"
   version="1.1"
   id="svg1"
   inkscape:version="1.4.4 (dcaf3e7d9e, 2026-05-05)"
   sodipodi:docname="Pensa_Think_02_.svg"
   xml:space="preserve"
   xmlns:inkscape="http://www.inkscape.org/namespaces/inkscape"
   xmlns:sodipodi="http://sodipodi.sourceforge.net/DTD/sodipodi-0.dtd"
   xmlns="http://www.w3.org/2000/svg"
   xmlns:svg="http://www.w3.org/2000/svg"><sodipodi:namedview
     id="namedview1"
     pagecolor="#ffffff"
     bordercolor="#000000"
     borderopacity="0.25"
     inkscape:showpageshadow="2"
     inkscape:pageopacity="0.0"
     inkscape:pagecheckerboard="0"
     inkscape:deskcolor="#d1d1d1"
     inkscape:document-units="px"
     inkscape:zoom="1.9383258"
     inkscape:cx="152.96706"
     inkscape:cy="139.03751"
     inkscape:window-width="1920"
     inkscape:window-height="1011"
     inkscape:window-x="0"
     inkscape:window-y="32"
     inkscape:window-maximized="1"
     inkscape:current-layer="layer1"
     showgrid="false" /><defs
     id="defs1"><inkscape:path-effect
       effect="simplify"
       id="path-effect4"
       is_visible="true"
       lpeversion="1.3"
       threshold="54.357506"
       steps="1"
       smooth_angles="48.282353"
       helper_size="11.223529"
       simplify_individual_paths="false"
       simplify_just_coalesce="false" /><inkscape:path-effect
       effect="roughen"
       id="path-effect3"
       is_visible="true"
       lpeversion="1.2"
       global_randomize="1;1"
       displace_x="0.2;1"
       displace_y="0.2;1"
       method="size"
       max_segment_size="1.14231"
       segments="2"
       handles="along"
       shift_nodes="true"
       fixed_displacement="false"
       spray_tool_friendly="false" /><inkscape:path-effect
       effect="bend_path"
       id="path-effect2"
       is_visible="true"
       lpeversion="1"
       bendpath="m 2.7017872,32.596666 30.6392818,-4.40322 29.989037,5.319938"
       prop_scale="1.0917411"
       scale_y_rel="false"
       vertical="false"
       hide_knot="false"
       bendpath-nodetypes="ccc" /><inkscape:path-effect
       effect="simplify"
       id="path-effect8"
       is_visible="false"
       lpeversion="1.3"
       threshold="7.874382"
       steps="5.2209738"
       smooth_angles="360"
       helper_size="1.9101124"
       simplify_individual_paths="true"
       simplify_just_coalesce="false" /><inkscape:path-effect
       effect="roughen"
       id="path-effect7"
       is_visible="true"
       lpeversion="1.2"
       global_randomize="1;1"
       displace_x="0.2;1"
       displace_y="0.2;1"
       method="size"
       max_segment_size="1.05283"
       segments="2"
       handles="along"
       shift_nodes="true"
       fixed_displacement="false"
       spray_tool_friendly="false" /><inkscape:path-effect
       effect="roughen"
       id="path-effect1"
       is_visible="true"
       lpeversion="1.2"
       global_randomize="1;1"
       displace_x="0.2;1"
       displace_y="0.2;1"
       method="size"
       max_segment_size="1.04846"
       segments="2"
       handles="rand"
       shift_nodes="true"
       fixed_displacement="false"
       spray_tool_friendly="false" /></defs><g
     inkscape:label="Camada 1"
     inkscape:groupmode="layer"
     id="layer1"><path
       id="path1"
       style="fill:#ffffff;stroke:#000000;stroke-width:0.9;stroke-linecap:round;stroke-linejoin:round;stroke-miterlimit:1;stroke-dasharray:none"
       d="m 26.431272,0.67437207 c -1.764366,0.26531179 -3.427173,0.98443983 -5.067529,1.83099123 -1.545916,0.7978132 -2.60479,2.180616 -3.668712,3.5448291 -1.118264,1.4338929 -1.882584,2.9319268 -2.461188,4.7414776 -0.307684,0.962264 0.1636,1.968801 -1.207204,1.034002 -1.892126,-1.290306 -4.3127222,-1.200286 -6.4425517,-0.66467 -1.9288793,0.48508 -3.7150127,1.641203 -4.5508506,3.360991 -0.7268304,1.495498 -1.5260822,2.944415 -1.6941999,4.563349 -0.1920948,1.849828 -0.3754094,3.721044 0.1671138,5.57352 0.6911541,2.359984 1.6822665,4.775971 3.616838,6.364531 -0.7648006,1.911639 -0.8504517,3.873978 -0.6357572,5.840874 0.2567957,2.352602 1.1985319,4.566819 2.2792598,6.697756 0.9790476,1.930447 2.7061376,3.566769 4.7628978,4.218331 2.139549,0.677789 4.367112,-0.07376 5.894887,-1.668695 0.22305,2.081503 0.896316,4.151305 1.734544,6.106778 0.956538,2.231471 2.648299,3.005818 4.951519,3.902377 2.217722,0.863278 4.077599,0.500131 6.233718,-0.605878 1.781777,-0.913985 2.539256,-3.720119 3.558799,-4.492852 1.048865,1.817907 2.848188,4.356045 5.103131,3.451803 2.193303,-0.879524 3.395145,-3.05501 3.995629,-5.227921 2.194345,1.417163 3.868284,-0.769184 4.491637,-2.635809 1.765802,1.560918 4.168436,1.646241 6.342923,1.268296 2.057469,-0.357606 3.710888,-1.722525 5.079556,-3.211659 1.346306,-1.464803 1.978817,-3.268129 2.869497,-5.005512 0.905918,-1.767107 1.015315,-3.736623 1.262221,-5.664963 0.252286,-1.970358 0.387536,-4.111747 -0.332515,-5.968882 -0.891337,-2.29891 -2.104732,-4.949821 -3.646073,-7.035082 C 57.788609,19.260316 54.837436,19.076187 54.264595,18.180182 53.476348,16.94725 52.623269,11.100626 47.276342,9.8794122 44.707645,9.2927335 41.092139,10.16749 39.582987,9.4891421 39.030432,9.2407742 38.034569,7.0593174 37.468718,6.0521289 36.655243,4.6041835 34.765645,2.6678505 33.803888,2.1470764 31.725339,1.0215796 28.989914,0.17210838 26.535408,0.76388683 Z"
       transform="rotate(163.76452,35.571456,33.500411)"
       sodipodi:nodetypes="csssssssscssscssscsccssssssssssscc" /></g></svg>
