<svg xmlns="http://www.w3.org/2000/svg" width="512" height="512" viewBox="0 0 512 512">
  <rect width="512" height="512" fill="#F4EFE6"/>
  <path d="M 148 104 H 364 A 48 48 0 0 1 412 152 V 296 A 48 48 0 0 1 364 344 H 300 L 268 404 L 236 344 H 148 A 48 48 0 0 1 100 296 V 152 A 48 48 0 0 1 148 104 Z" fill="#FFFFFF" stroke="#141414" stroke-width="16" stroke-linejoin="round"/>
  <g fill="[(146, 158, 3), (190, 158, 4), (234, 158, 5), (278, 158, 6), (322, 158, 7), (366, 158, 8), (146, 202, 4), (190, 202, 5), (234, 202, 6), (278, 202, 7), (322, 202, 8), (366, 202, 9), (146, 246, 5), (190, 246, 6), (234, 246, 7), (278, 246, 8), (322, 246, 9), (366, 246, 10), (146, 290, 6), (190, 290, 7), (234, 290, 8), (278, 290, 9), (322, 290, 10), (366, 290, 10)]">
    <circle cx="146" cy="158" r="3"/>
    <circle cx="190" cy="158" r="4"/>
    <circle cx="234" cy="158" r="5"/>
    <circle cx="278" cy="158" r="6"/>
    <circle cx="322" cy="158" r="7"/>
    <circle cx="366" cy="158" r="8"/>
    <circle cx="146" cy="202" r="4"/>
    <circle cx="190" cy="202" r="5"/>
    <circle cx="234" cy="202" r="6"/>
    <circle cx="278" cy="202" r="7"/>
    <circle cx="322" cy="202" r="8"/>
    <circle cx="366" cy="202" r="9"/>
    <circle cx="146" cy="246" r="5"/>
    <circle cx="190" cy="246" r="6"/>
    <circle cx="234" cy="246" r="7"/>
    <circle cx="278" cy="246" r="8"/>
    <circle cx="322" cy="246" r="9"/>
    <circle cx="366" cy="246" r="10"/>
    <circle cx="146" cy="290" r="6"/>
    <circle cx="190" cy="290" r="7"/>
    <circle cx="234" cy="290" r="8"/>
    <circle cx="278" cy="290" r="9"/>
    <circle cx="322" cy="290" r="10"/>
    <circle cx="366" cy="290" r="10"/>
  </g>
</svg>
